<?xml version="1.0" encoding="UTF-8" standalone="no"?>
<svg
   xmlns:dc="http://purl.org/dc/elements/1.1/"
   xmlns:cc="http://creativecommons.org/ns#"
   xmlns:rdf="http://www.w3.org/1999/02/22-rdf-syntax-ns#"
   xmlns:svg="http://www.w3.org/2000/svg"
   xmlns="http://www.w3.org/2000/svg"
   xmlns:sodipodi="http://sodipodi.sourceforge.net/DTD/sodipodi-0.dtd"
   xmlns:inkscape="http://www.inkscape.org/namespaces/inkscape"
   viewBox="0 0 700 700"
   version="1.1"
   id="svg13"
   sodipodi:docname="f1-tv-logo.svg"
   width="700"
   height="700"
   inkscape:version="0.92.0 r15299"
   inkscape:export-filename="C:\Users\suitedoalex\sites\f1-tv-logo-0.png"
   inkscape:export-xdpi="561.73712"
   inkscape:export-ydpi="561.73712">
  <metadata
     id="metadata17">
    <rdf:RDF>
      <cc:Work
         rdf:about="">
        <dc:format>image/svg+xml</dc:format>
        <dc:type
           rdf:resource="http://purl.org/dc/dcmitype/StillImage" />
        <dc:title></dc:title>
      </cc:Work>
    </rdf:RDF>
  </metadata>
  <sodipodi:namedview
     pagecolor="#ffffff"
     bordercolor="#666666"
     borderopacity="1"
     objecttolerance="10"
     gridtolerance="10"
     guidetolerance="10"
     inkscape:pageopacity="0"
     inkscape:pageshadow="2"
     inkscape:window-width="1920"
     inkscape:window-height="1017"
     id="namedview15"
     showgrid="false"
     inkscape:zoom="0.68333333"
     inkscape:cx="150.94688"
     inkscape:cy="104.72078"
     inkscape:window-x="-8"
     inkscape:window-y="-8"
     inkscape:window-maximized="1"
     inkscape:current-layer="svg13" />
  <defs
     id="defs5">
    <clipPath
       id="f-1-tv_svg__a">
      <path
         d="M 50,0 H 74.969 V 12 H 50 Z m 0,0"
         id="path2"
         inkscape:connector-curvature="0" />
    </clipPath>
  </defs>
  <g
     clip-path="url(#f-1-tv_svg__a)"
     id="g9"
     transform="matrix(8.288034,0,0,8.288034,39.331334,300.2718)"
     inkscape:export-filename="C:\Users\suitedoalex\sites\f1-tv-logo-3.png"
     inkscape:export-xdpi="108.15382"
     inkscape:export-ydpi="108.15382">
    <path
       d="M 54.719,11.844 V 2.605 H 50.227 V 0 h 12.136 v 2.605 h -4.492 v 9.239 z M 65.78,0 68.46,8.7 c 0.043,0.116 0.082,0.21 0.125,0.277 q 0.066,0.103 0.203,0.101 0.16,0 0.23,-0.094 a 1,1 0 0 0 0.133,-0.3 L 71.848,0 h 3.12 L 72.04,9.238 q -0.41,1.277 -1.137,2.02 Q 70.179,12.001 68.856,12 67.42,12.001 66.704,11.305 C 66.228,10.844 65.841,10.152 65.544,9.238 L 62.52,0 Z m 0,0"
       style="fill:#15151e;fill-opacity:1;fill-rule:nonzero;stroke:none"
       id="path7"
       inkscape:connector-curvature="0" />
  </g>
  <path
     d="m 138.20758,356.18288 -43.445874,42.2524 H 39.331334 l 68.956446,-68.5752 c 25.61002,-25.41111 37.97577,-29.58828 81.68686,-29.58828 h 172.62317 l -37.49507,36.74914 H 194.89773 c -32.63828,0 -39.60023,2.51957 -56.7233,19.16194 z m 181.33389,-13.26914 h -123.8398 c -32.89521,0 -38.04208,2.48641 -52.96054,17.44631 l -37.97577,38.07523 h 51.37752 l 12.23314,-12.26629 c 8.06426,-8.09741 11.66126,-8.87649 27.93896,-8.87649 h 88.87259 z m 13.3686,55.52154 98.22149,-98.16348 h -60.99164 l -97.96456,98.16348 h 60.76786 z m 41.27441,0 q -4.64959,0 -7.70787,-3.10802 a 10.442923,10.442923 0 0 1 -3.06657,-7.67472 c 0,-3.00855 0.99456,-5.56955 3.04171,-7.60841 q 3.04999,-3.10801 7.67472,-3.10801 4.65787,0 7.66643,3.10801 c 2.0057,2.10516 3.04171,4.63301 3.04171,7.67472 0,3.00856 -0.99457,5.56956 -3.00856,7.60841 a 10.194282,10.194282 0 0 1 -7.64157,3.10802 m -0.058,-19.78354 q -3.80421,0 -6.38179,2.61902 -2.56929,2.63559 -2.561,6.38178 c 0,2.52785 0.84538,4.63302 2.561,6.40665 1.71562,1.74878 3.81249,2.62731 6.38179,2.62731 q 3.77105,0 6.34034,-2.62731 2.56929,-2.59415 2.561,-6.38178 a 8.7853161,8.7853161 0 0 0 -2.561,-6.40665 8.4537947,8.4537947 0 0 0 -6.34034,-2.61902 m -2.10517,10.81588 v 4.21033 h -2.37037 v -11.9182 h 4.47554 q 2.32893,0 3.48926,0.87025 1.16861,0.83709 1.16861,2.59415 0,1.74049 -0.48899,2.561 a 3.3152136,3.3152136 0 0 1 -1.58302,1.35924 l 2.23777,4.53356 h -2.4947 l -2.03885,-4.21033 z m -0.0332,-5.85964 v 3.97826 h 2.39524 c 0.74593,0 1.25979,-0.12432 1.58302,-0.45584 q 0.49728,-0.49728 0.48899,-1.51671 0,-2.02228 -2.52785,-2.00571 z m 0,0"
     style="fill:#e10600;fill-opacity:1;fill-rule:nonzero;stroke:none;stroke-width:8.28803444"
     id="path11"
     inkscape:connector-curvature="0"
     inkscape:export-filename="C:\Users\suitedoalex\sites\f1-tv-logo-3.png"
     inkscape:export-xdpi="108.15382"
     inkscape:export-ydpi="108.15382" />
</svg>
